<svg id="Layer_1" data-name="Layer 1" xmlns="http://www.w3.org/2000/svg" viewBox="0 0 5316.2 1276.12"><defs><style>.cls-1{fill:#fff}</style></defs><path class="cls-1" d="M1178.8 411.11V560h100.48v96.76H1178.8v250.06h-103.46V311.38h215.1v99.73zM1306.08 906.82V311.38H1414v595.44zM1619.43 906.82l-4.43-19.36c-11.16 14.89-38 23.82-63.26 23.82-63.27 0-106.44-33.49-109.41-102.71-1.49-19.35-3.72-142.91-3.72-198s-1.5-152.58 4.46-201.7c5.21-46.89 36.47-102 124.3-102 88.57 0 115.37 54.33 120.57 98.26.75 20.08 1.5 109.4 1.5 109.4h-101.27V432c0-23.08-6.7-32-20.1-32-12.65 0-20.09 9.67-20.09 35-.75 40.19-.75 135.46-.75 174.91 0 36.48.75 152.59 1.49 176.41 0 27.53 6 38.69 22.33 38.69 14.89 0 22.33-9.67 22.33-35.72v-126.6h-30.52v-90.8h129.52v201.7c0 67.74 1.48 133.23 1.48 133.23zM1861.34 906.82V653.76h-42.42v253.06H1716.2V311.38h102.72V562.2h42.42V311.38h102.71v595.44zM2148.64 411.11v495.71h-104.21V411.11h-63.26v-99.73h232.22v99.73zM2362.27 357.53v226.26h81.12v44.67h-81.12v278.36h-46.15V311.38h133.23v46.15zM2625.74 408.14c0 26.79.74 139.93.74 198.73 0 65.49 0 166.72-.74 205.43-2.23 65.49-26 99-80.38 99s-77.41-31.26-78.9-97.5c-.74-16.37-.74-142.16-.74-206.17 0-55.08 0-177.14.74-197.24 1.49-68.47 24.56-102 78.9-102 52.1 0 78.15 30.52 80.38 99.75zm-48.38 413.09c1.49-26.05 1.49-167.47 1.49-212.88 0-40.19 0-180.12-.75-203.94-.74-34.24-8.18-49.12-32-49.12-26.8 0-32 19.36-32 49.88 0 24.56-.75 162.25-.75 205.41 0 45.41 0 185.34.75 210.65s7.44 43.92 32.74 43.92c22.33 0 29.04-20.15 30.52-43.92zM2796.94 573.38c-5.21 14.88-16.37 34.23-26.06 38l48.38 295.48h-48.38l-42.42-281.35-23.07.74v280.57h-44.65V311.38h70.69c41 0 60.3 22.33 69.23 61.78 3.73 17.12 6 52.09 6 99-.04 49.11-3.01 79.63-9.72 101.22zm-41.69-178.64c-1.48-22.34-11.16-38.71-27.53-38.71h-21.59v226.28c.74 0 17.12 0 23.82-1.49 12.66-1.49 17.87-11.17 20.84-20.85 5.22-14.14 7.45-57.3 7.45-80.38 0-30.52-2.24-77.41-2.99-84.85zM2974.83 356v550.82h-46.9V356h-52.85v-44.62h153.34V356zM3156.44 906.82V628.46h-60.3v278.36H3050V311.38h46.13v272.41h60.3V311.38h46.15v595.44zM3242.78 906.82V311.38H3376V356h-87.08v227.79h76.66v44.67h-76.66v233.7h87.82v44.66zM3577 411.11V560h100.49v96.76H3577v250.06h-103.49V311.38h215.11v99.73zM3828.57 912c-74.44 0-127.28-37.21-127.28-122.07V311.38H3804v477.84c0 25.31 6.7 32 21.59 32s20.1-7.45 20.1-31.27V311.38h103.46V790c-.01 78.86-44.67 122-120.58 122zM4132.24 411.11v495.71H4028V411.11h-63.27v-99.73H4197v99.73zM4337.68 912c-74.44 0-127.29-37.21-127.29-122.07V311.38h102.72v477.84c0 25.31 6.7 32 21.59 32s20.1-7.45 20.1-31.27V311.38h103.46V790c0 78.86-44.66 122-120.58 122zM4721.74 582.31c-7.43 20.84-20.09 36.46-30.5 41.67l54.33 282.84H4642.1l-44.65-252.32h-11.17v252.32h-99.73V311.38H4625c38 0 74.44 17.12 89.33 49.86 11.16 24.57 20.09 67 20.09 120.58-.02 47.64-5.24 78.9-12.68 100.49zm-94.51-146.64c-1.5-15.63-8.19-28.28-21.59-28.28h-17.86v158.54c1.48 0 14.89 0 20.09-.74 9.67-1.49 14.14-8.19 16.37-16.37 3.73-10.43 5.22-38 5.22-55.83 0-21.59-1.46-50.62-2.23-57.32zM4763.45 906.82V311.38h212.13v99.73H4866.9V560h99v93h-99v156.31h109.42v97.51zM318.8 314.72h594.63v594.63H318.8z"/><path d="M791.87 560.24c-4.26 57.83-47.59 129.31-174.75 219.34-128-88.89-171.89-160-176.67-217.77l-.09-20.09c4.57-60.42 44.22-92.13 78.64-95.62a154.39 154.39 0 0115.9-.89c39.78-.18 59 16.9 80.91 42.87 21.74-26.17 40.72-43.42 80.47-43.6a158 158 0 0116 .75c34.44 3.19 74.38 34.54 79.54 94.92z" fill="#ee3e31"/></svg>