<svg xmlns="http://www.w3.org/2000/svg" viewBox="0 0 100 125" fill="#fff"><path d="M58.6 95c-1 0-2-.3-2.8-.9l-26-19.2H15.4c-2.6 0-4.8-2.2-4.8-4.9V30c0-2.7 2.1-4.9 4.8-4.9h14.4l26-19.2c1.4-1.1 3.3-1.2 4.9-.4 1.6.8 2.7 2.5 2.7 4.4v80.2c0 1.9-1 3.6-2.7 4.4-.7.3-1.4.5-2.1.5zM15.4 29.4c-.3 0-.6.3-.6.7V70c0 .4.3.7.6.7h15.1c.5 0 .9.1 1.3.4l26.5 19.6c.1 0 .2.2.5 0 .1-.1.4-.2.4-.6V9.9c0-.4-.2-.6-.4-.6-.3-.1-.5 0-.5 0L31.8 28.9c-.4.3-.8.4-1.3.4H15.4zM57.1 7.6zM69.7 70c-1.1 0-2.1-.9-2.1-2.1 0-1.2.9-2.1 2.1-2.2 8.6-.2 15.5-7.3 15.5-15.8s-7-15.6-15.5-15.8c-1.2 0-2.1-1-2.1-2.2 0-1.1 1-2.1 2.1-2.1 10.8.2 19.6 9.2 19.6 20s-8.7 20-19.6 20.2z"/></svg>
