<svg xmlns="http://www.w3.org/2000/svg" viewBox="0 0 100 125" fill="#fff"><path d="M52.1 95c-1 0-2-.3-2.8-.9L23.8 74.9H9.7C7.1 74.9 5 72.7 5 70V30c0-2.7 2.1-4.9 4.7-4.9h14.1L49.3 6c1.4-1.1 3.3-1.2 4.8-.5 1.7.8 2.7 2.5 2.7 4.4v80.2c0 1.9-1 3.6-2.7 4.4-.6.3-1.3.5-2 .5zM9.7 29.4c-.3 0-.5.3-.5.7V70c0 .4.2.7.5.7h14.8c.5 0 .9.1 1.3.4l26 19.6c.1.1.2.1.4 0 .1-.1.3-.2.3-.6V9.9c0-.4-.2-.6-.3-.6-.2-.1-.3 0-.4 0l-26 19.6c-.4.3-.8.4-1.3.4H9.7zM62 70c-1.1 0-2.1-.9-2.1-2.1 0-1.2.9-2.1 2.1-2.2 8.6-.2 15.5-7.3 15.5-15.8s-7-15.6-15.5-15.8c-1.2 0-2.1-1-2.1-2.2 0-1.1 1-2.1 2.1-2.1 10.8.2 19.6 9.2 19.6 20S72.8 69.8 62 70z"/><path d="M62 83.5c-1.2 0-2.1-.9-2.1-2.1 0-1.2.9-2.1 2.1-2.1C77.8 79 90.8 65.9 90.8 50s-13-29-28.9-29.3c-1.2 0-2.1-1-2.1-2.1 0-1.2 1-2.1 2.1-2.1C80.2 16.8 95 31.8 95 50S80.2 83.2 62 83.5z"/></svg>
